<svg width="667" height="667" viewBox="0 0 667 667" fill="none" xmlns="http://www.w3.org/2000/svg">
<g id="6">
<path id="Combined Shape Copy 4" fill-rule="evenodd" clip-rule="evenodd" d="M52.3328 52.3316C52.4456 52.2104 52.5606 52.0913 52.6777 51.9741C81.3822 23.2696 230.335 125.683 385.373 280.721C540.411 435.76 642.825 584.712 614.12 613.417C614.003 613.534 613.884 613.649 613.763 613.762L568.239 568.238C568.361 568.126 568.481 568.012 568.598 567.894C592.648 543.845 506.842 419.046 376.945 289.15C247.048 159.253 122.25 73.4468 98.2001 97.4965C98.0829 97.6137 97.9684 97.7332 97.8564 97.8552L52.3328 52.3316ZM108.895 108.894C131.781 86.0078 250.532 167.653 374.133 291.254C497.734 414.855 579.38 533.606 556.494 556.492L539.35 539.349C539.473 539.238 539.593 539.124 539.71 539.006C560.85 517.866 485.62 408.36 371.677 294.417C257.735 180.475 148.229 105.244 127.088 126.385C126.971 126.502 126.857 126.622 126.746 126.744L108.895 108.894Z" fill="#B87D43"/>
<g id="Rectangle">
<g id="Mask">
<circle id="path-1" cx="333.047" cy="317.048" r="208" fill="#FCCB6B"/>
</g>
<g id="Combined-Shape-Copy Clipped">
<mask id="mask0_0_7442" style="mask-type:luminance" maskUnits="userSpaceOnUse" x="125" y="109" width="417" height="417">
<circle id="path-1_2" cx="333.047" cy="317.048" r="208" fill="white"/>
</mask>
<g mask="url(#mask0_0_7442)">
<path id="Combined-Shape-Copy" fill-rule="evenodd" clip-rule="evenodd" d="M539.417 517.52C534.73 512.833 527.132 512.833 522.446 517.52C517.76 522.206 517.76 529.804 522.446 534.49L632.755 644.799C637.441 649.485 645.039 649.485 649.725 644.799C654.411 640.113 654.411 632.515 649.725 627.828L539.417 517.52ZM383.853 361.956C379.167 357.27 371.569 357.27 366.882 361.956C362.196 366.643 362.196 374.241 366.882 378.927L422.037 434.081L422.029 434.088C426.367 438.796 426.251 446.13 421.683 450.698C417.115 455.266 409.781 455.381 405.073 451.044L405.066 451.052L291.929 337.915C287.243 333.228 279.645 333.228 274.959 337.915C270.272 342.601 270.272 350.199 274.959 354.885L456.685 536.612C461.371 541.298 468.969 541.298 473.656 536.612C478.342 531.925 478.342 524.327 473.656 519.641L439.007 484.993C434.321 480.307 434.321 472.709 439.007 468.022C443.694 463.336 451.292 463.336 455.978 468.022L477.191 489.236C481.877 493.922 489.475 493.922 494.162 489.236C498.848 484.549 498.848 476.951 494.162 472.265L383.853 361.956ZM460.928 574.795C456.241 570.109 448.643 570.109 443.957 574.795C439.271 579.482 439.271 587.08 443.957 591.766L495.576 643.385C500.262 648.071 507.86 648.071 512.546 643.385C517.233 638.698 517.233 631.101 512.546 626.414L460.928 574.795ZM257.988 371.856C253.302 367.17 245.704 367.169 241.017 371.856C236.331 376.542 236.331 384.14 241.017 388.826L292.636 440.445C297.323 445.131 304.921 445.131 309.607 440.445C314.293 435.759 314.293 428.161 309.607 423.475L257.988 371.856ZM62.8265 193.665C67.5128 188.979 75.1108 188.979 79.7971 193.665L197.177 311.045C201.863 315.731 201.863 323.329 197.177 328.015C192.491 332.701 184.893 332.701 180.206 328.015L62.8265 210.635C58.1402 205.949 58.1403 198.351 62.8265 193.665ZM256.574 268.618C251.887 263.932 244.29 263.932 239.603 268.618C234.917 273.304 234.917 280.902 239.603 285.589L245.967 291.953C250.654 296.639 250.653 304.237 245.967 308.923C241.281 313.61 233.683 313.61 228.997 308.923L47.2702 127.197C42.5839 122.511 42.5839 114.913 47.2702 110.226C51.9565 105.54 59.5545 105.54 64.2408 110.226L205.662 251.648L205.669 251.64C210.377 255.977 217.711 255.862 222.279 251.294C226.847 246.726 226.962 239.392 222.625 234.684L222.633 234.677L205.662 217.707C200.976 213.02 200.976 205.422 205.662 200.736C210.348 196.05 217.946 196.05 222.633 200.736L332.941 311.045C337.628 315.731 337.628 323.329 332.941 328.015C328.255 332.701 320.657 332.701 315.971 328.015L256.574 268.618ZM54.3413 49.4151C59.0276 44.7288 66.6255 44.7288 71.3118 49.4151L181.62 159.724C186.307 164.41 186.307 172.008 181.62 176.694C176.934 181.381 169.336 181.381 164.65 176.694L54.3413 66.3857C49.655 61.6994 49.655 54.1014 54.3413 49.4151Z" fill="#ECB55A"/>
</g>
</g>
<g id="Clipped">
<mask id="mask1_0_7442" style="mask-type:luminance" maskUnits="userSpaceOnUse" x="125" y="109" width="417" height="417">
<circle id="path-1_3" cx="333.047" cy="317.048" r="208" fill="white"/>
</mask>
<g mask="url(#mask1_0_7442)">
<rect id="Rectangle_2" opacity="0.0775757" x="333.047" y="109.048" width="209.089" height="416" fill="black"/>
</g>
</g>
</g>
<path id="Combined Shape" fill-rule="evenodd" clip-rule="evenodd" d="M52.3316 52.3328C52.2104 52.4456 52.0913 52.5605 51.9741 52.6777C23.2696 81.3822 125.683 230.335 280.721 385.373C435.76 540.411 584.712 642.825 613.417 614.12C613.534 614.003 613.649 613.884 613.762 613.763L568.238 568.239C568.126 568.361 568.012 568.481 567.895 568.598C543.845 592.648 419.046 506.842 289.15 376.945C159.253 247.048 73.4468 122.25 97.4965 98.2001C97.6137 98.0829 97.7333 97.9683 97.8552 97.8564L52.3316 52.3328ZM108.894 108.895C86.0078 131.781 167.653 250.532 291.254 374.133C414.855 497.734 533.606 579.38 556.492 556.494L539.349 539.35C539.238 539.473 539.124 539.593 539.006 539.71C517.866 560.85 408.36 485.62 294.417 371.677C180.475 257.735 105.244 148.229 126.385 127.088C126.502 126.971 126.622 126.857 126.744 126.745L108.894 108.895Z" fill="#B87D43"/>
</g>
</svg>
